<?xml version="1.0" encoding="utf-8"?>
<!-- Generator: Adobe Illustrator 21.1.0, SVG Export Plug-In . SVG Version: 6.00 Build 0)  -->
<svg version="1.1" id="Layer_1" xmlns="http://www.w3.org/2000/svg" xmlns:xlink="http://www.w3.org/1999/xlink" x="0px" y="0px"
	 viewBox="0 0 72.5 15.7" style="enable-background:new 0 0 72.5 15.7;" xml:space="preserve">
<style type="text/css">
	.st0{fill:none;stroke:#FFFFFF;stroke-linecap:square;stroke-miterlimit:10;}
	.st1{fill:none;stroke:#FFFFFF;stroke-miterlimit:10;}
</style>
<polyline class="st0" points="10.5,14.5 10.5,4.5 20.5,14.5 "/>
<polyline class="st0" points="11.5,2.5 9.5,0.5 11.5,0.5 "/>
<polyline class="st0" points="61.5,3.5 61.5,14.5 51.5,4.5 51.5,10.5 "/>
<path class="st1" d="M66.5,14.5c3,0,5.5-2.5,5.5-5.5s-2.5-5.5-5.5-5.5"/>
<line class="st1" x1="29.5" y1="4.5" x2="39.5" y2="4.5"/>
<line class="st0" x1="34.5" y1="4.5" x2="34.5" y2="14.5"/>
<path class="st1" d="M23.1,13.9l6.8-6.8c0.4,0.7,0.6,1.5,0.6,2.4c0,2.8-2.2,5-5,5s-5-2.2-5-5s2.2-5,5-5"/>
<path class="st1" d="M4.5,7.5c-1.1-0.1-2-0.9-2-2s0.9-2,2-2C5.3,3.5,6,4,6.3,4.7c0,0-3.3,3.3-5.8,5.8c0,0.2,0,0.4,0,0.5
	c0,1.9,1.6,3.5,3.5,3.5s3.5-1.6,3.5-3.5C7.5,9.2,6.2,7.8,4.5,7.5L4.5,7.5z"/>
<polyline class="st1" points="66.5,14.5 64.5,14.5 64.5,3.5 66.5,3.5 "/>
<line class="st1" x1="64.5" y1="14.5" x2="72" y2="7"/>
<polyline class="st1" points="46.5,9.5 41.5,14.5 41.5,4.5 51.5,14.5 "/>
</svg>
